<?xml version="1.0" encoding="UTF-8" standalone="no"?>
<!-- Created with Inkscape (http://www.inkscape.org/) -->

<svg
   width="1920"
   height="1080"
   viewBox="0 0 507.99999 285.75"
   version="1.1"
   id="svg5"
   xml:space="preserve"
   inkscape:version="1.2 (dc2aedaf03, 2022-05-15)"
   sodipodi:docname="Win10 BSOD.svg"
   xmlns:inkscape="http://www.inkscape.org/namespaces/inkscape"
   xmlns:sodipodi="http://sodipodi.sourceforge.net/DTD/sodipodi-0.dtd"
   xmlns="http://www.w3.org/2000/svg"
   xmlns:svg="http://www.w3.org/2000/svg"
   xmlns:rdf="http://www.w3.org/1999/02/22-rdf-syntax-ns#"
   xmlns:cc="http://creativecommons.org/ns#"
   xmlns:dc="http://purl.org/dc/elements/1.1/"><sodipodi:namedview
     id="namedview7"
     pagecolor="#ffffff"
     bordercolor="#000000"
     borderopacity="0.25"
     inkscape:showpageshadow="2"
     inkscape:pageopacity="0.0"
     inkscape:pagecheckerboard="0"
     inkscape:deskcolor="#d1d1d1"
     inkscape:document-units="mm"
     showgrid="false"
     inkscape:zoom="0.9453125"
     inkscape:cx="647.93388"
     inkscape:cy="576.52893"
     inkscape:window-width="2560"
     inkscape:window-height="1387"
     inkscape:window-x="3992"
     inkscape:window-y="638"
     inkscape:window-maximized="1"
     inkscape:current-layer="layer1" /><defs
     id="defs2" /><g
     inkscape:label="Win10 BSOD"
     inkscape:groupmode="layer"
     id="layer1"
     style="display:inline"><rect
       style="display:inline;fill:#0078d7;fill-opacity:1;stroke-width:0.1;stroke-linejoin:bevel"
       id="rect1988"
       width="508"
       height="285.75"
       x="0"
       y="0"
       inkscape:label="Background" /><g
       id="g2148"
       inkscape:label="QR Code"><rect
         style="display:inline;fill:#ffffff;fill-opacity:1;stroke-width:0.1;stroke-linejoin:bevel"
         id="rect1682"
         width="30.5"
         height="30.5"
         x="54.72266"
         y="185.74039"
         inkscape:label="QR Code Background"
         sodipodi:insensitive="true" /><path
         d="m 57.2497,188.26743 h 7.124858 v 7.12486 H 57.2497 Z m 8.142694,0 h 2.035674 v 1.01784 h 1.017837 v 1.01784 h -1.017837 v 1.01783 h -1.017836 v 1.01784 h -1.017838 z m 3.053511,0 h 1.017838 v 1.01784 h -1.017838 z m 2.035673,0 h 1.017837 v 1.01784 h -1.017837 z m 2.035675,0 h 2.035673 v 2.03568 h -1.017837 v -1.01784 h -1.017836 z m 3.053509,0 h 7.124858 v 7.12486 h -7.124858 z m -17.303225,1.01784 v 5.08918 h 5.089185 v -5.08918 z m 18.321062,0 v 5.08918 h 5.089184 v -5.08918 z m -17.303225,1.01784 h 3.05351 v 3.0535 h -3.05351 z m 12.214041,0 h 1.017838 v 2.03567 h -1.017838 v 1.01783 h -1.017837 v -2.03567 h 1.017837 z m 6.107021,0 h 3.05351 v 3.0535 h -3.05351 z m -9.160531,1.01783 h 1.017838 v 2.03567 h -1.017838 z m 5.089184,0 h 1.017837 v 2.03567 h -2.035673 v -1.01783 h 1.017836 z m -8.142695,2.03567 h 1.017838 v 2.03568 h -1.017838 z m 2.035674,0 h 1.017837 v 2.03568 h 1.017838 v 1.01783 h -1.017838 v 1.01784 h -2.035673 v -2.03567 h 1.017836 z m 2.035675,0 h 1.017835 v 2.03568 h -1.017835 z m 2.035672,0 h 1.017838 v 2.03568 h 1.017836 v 1.01783 h -1.017836 v 1.01784 h 3.053509 v 1.01784 h -1.017836 v 1.01784 h -4.071348 v 2.03567 h -1.017835 v 2.03567 h 1.017835 v 1.01784 h -2.035673 v 1.01783 h -1.017837 v -2.03567 h -1.017836 v 2.03567 h 1.017836 v 2.03568 h 1.017837 v 1.01784 h -1.017837 v 1.01783 h -2.035674 v -2.03567 h 1.017838 v -1.01784 h -1.017838 v -1.01784 h -3.05351 v -1.01783 h 3.05351 v -2.03568 h -1.017836 v -1.01783 h 2.035674 v 1.01783 h 2.035673 v -2.03567 h 1.017838 v -1.01783 h -1.017838 v -2.03568 h 1.017838 v 1.01784 h 2.035672 z m 2.035674,1.01784 h 1.017837 v 1.01784 H 73.535089 Z M 57.2497,196.41012 h 2.035674 v 1.01784 H 57.2497 Z m 4.071347,0 h 3.053511 v 1.01784 h -1.017836 v 1.01784 h 2.035672 v -1.01784 h 1.017838 v 1.01784 h 1.017836 v 2.03567 h -3.05351 v -1.01783 h -1.017836 v 1.01783 h 1.017836 v 1.01784 h -2.035674 v -2.03567 h -3.05351 v -1.01784 h 1.017836 v -1.01784 h 1.017837 v 1.01784 h 1.017837 v -1.01784 h -1.017837 z m 15.267552,0 h 1.017837 v 1.01784 h -1.017837 z m 2.035674,0 h 4.071347 v 1.01784 h -1.017837 v 1.01784 h -1.017837 v -1.01784 h -1.017837 v 1.01784 h 1.017837 v 1.01784 h 1.017837 v 1.01783 h 1.017837 v 1.01784 h -1.017837 v 1.01783 h -1.017837 v -1.01783 h -2.035673 v -1.01784 h 1.017836 v -1.01783 h -2.035673 v 1.01783 h -1.017837 v 1.01784 h -1.017837 v 1.01783 h -2.035673 v 1.01784 h 1.017837 v 1.01784 h 1.017836 v -1.01784 h 1.017837 v -1.01784 h 1.017837 v -1.01783 h 1.017837 v 1.01783 h 2.035673 v 1.01784 h 1.017837 v 1.01784 h -1.017837 v 1.01783 h -2.035673 v 2.03568 h 3.05351 v 1.01784 h -1.017837 v 2.03567 H 79.642109 V 209.642 h -2.035673 v 1.01784 h -1.017837 v 1.01783 h 2.035674 v -1.01783 h 1.017836 v 1.01783 h 1.017837 v -1.01783 h 1.017837 v 2.03568 h 1.017837 v 1.01783 h -3.053511 v -1.01783 h -4.071347 v -1.01785 h -2.035673 v -1.01783 h -1.017836 v 2.03568 h 1.017836 v 1.01783 H 71.499415 V 209.642 h 2.035674 v -4.07135 h -1.017836 v -1.01783 h -1.017838 v -1.01784 h 1.017838 v -1.01784 h -1.017838 v 1.01784 h -1.017837 v -2.03567 h 2.035675 v -1.01784 h 1.017836 v 1.01784 h 1.017837 v -1.01784 h 1.017836 v -1.01783 h 1.017837 v -1.01784 h 1.017837 v -1.01784 h 1.017837 z M 57.2497,198.4458 h 1.017837 v 1.01784 h 1.017837 v 1.01783 h -1.017837 v 1.01784 h 1.017837 v 1.01783 H 57.2497 Z m 2.035674,2.03567 h 1.017836 v 1.01784 h -1.017836 z m 1.017836,1.01784 h 1.017837 v 1.01783 H 60.30321 Z m 3.053512,1.01783 h 1.017836 v 1.01784 h -1.017836 z m -4.071348,1.01784 h 3.05351 v 1.01784 h -3.05351 z m 19.338899,0 v 1.01784 h 1.017836 v -1.01784 z M 57.2497,204.55282 h 2.035674 v 1.01783 H 57.2497 Z m 11.196205,1.01783 h 1.017838 v 1.01784 h 2.035672 v -1.01784 h 1.017838 v 3.05352 h -1.017838 v -1.01784 h -3.05351 z m 6.107021,0 v 3.05352 h 3.05351 v -3.05352 z M 57.2497,206.58849 h 7.124858 v 7.12486 H 57.2497 Z m 18.321062,0 h 1.017837 v 1.01784 h -1.017837 z m -17.303225,1.01784 v 5.08919 h 5.089185 v -5.08919 z m 1.017837,1.01784 h 3.05351 v 3.0535 h -3.05351 z m 22.392409,0 H 82.69562 V 209.642 H 81.677783 Z M 67.428068,209.642 h 2.035675 v 1.01784 h 1.017835 v 3.05351 h -2.035673 v -1.01783 h 1.017838 v -1.01785 h -2.035675 z m 7.124858,0 v 1.01784 h 1.017836 V 209.642 Z m -9.160532,2.03567 h 1.017838 v 1.01785 h 1.017836 v 1.01783 h -2.035674 z"
         id="path2137"
         style="fill:#0078d7;fill-opacity:1;stroke-width:1.01784"
         inkscape:label="QR Code" /></g><g
       id="g1706"
       inkscape:label="Text"><text
         xml:space="preserve"
         style="font-style:normal;font-variant:normal;font-weight:normal;font-stretch:normal;font-size:4.23333px;line-height:2.5;font-family:'Segoe UI';-inkscape-font-specification:'Segoe UI';letter-spacing:-0.0555625px;fill:#ffffff;stroke-width:0.1;stroke-linejoin:bevel"
         x="90.495255"
         y="215.4272"
         id="text1628"
         inkscape:label="Stop Code:"><tspan
           sodipodi:role="line"
           id="tspan1626"
           style="stroke-width:0.1"
           x="90.495255"
           y="215.4272">Stop code: CRITICAL_PROCESS_DIED</tspan></text><text
         xml:space="preserve"
         style="font-style:normal;font-variant:normal;font-weight:normal;font-stretch:normal;font-size:4.23333px;line-height:2.5;font-family:'Segoe UI';-inkscape-font-specification:'Segoe UI';letter-spacing:-0.0608542px;display:inline;fill:#ffffff;stroke-width:0.1;stroke-linejoin:bevel"
         x="90.396294"
         y="206.4222"
         id="text1624"
         inkscape:label="If you call a support person"><tspan
           sodipodi:role="line"
           id="tspan1622"
           style="font-size:4.23333px;stroke-width:0.1"
           x="90.396294"
           y="206.4222">If you call a support person, give them this info:</tspan></text><text
         xml:space="preserve"
         style="font-style:normal;font-variant:normal;font-weight:normal;font-stretch:normal;font-size:5.29167px;line-height:2.5;font-family:'Segoe UI';-inkscape-font-specification:'Segoe UI';letter-spacing:-0.105833px;display:inline;fill:#ffffff;stroke-width:0.1;stroke-linejoin:bevel"
         x="90.546112"
         y="189.42683"
         id="text1596"
         inkscape:label="For more information about this issue"><tspan
           sodipodi:role="line"
           id="tspan1594"
           style="font-size:5.29167px;stroke-width:0.1"
           x="90.546112"
           y="189.42683">For more information <tspan
   style="letter-spacing:-0.137583px"
   id="tspan1620">about this issue and possible fixes, visit https://www.windows.com/stopcode</tspan></tspan></text><text
         xml:space="preserve"
         style="font-style:normal;font-variant:normal;font-weight:normal;font-stretch:normal;font-size:10.5833px;line-height:2.5;font-family:'Segoe UI';-inkscape-font-specification:'Segoe UI';letter-spacing:-0.111125px;display:inline;fill:#ffffff;stroke-width:0.1;stroke-linejoin:bevel"
         x="54.683472"
         y="170.48788"
         id="text1592"
         inkscape:label="20% complete"><tspan
           sodipodi:role="line"
           id="tspan1590"
           style="stroke-width:0.1"
           x="54.683472"
           y="170.48788">20% complete</tspan></text><text
         xml:space="preserve"
         style="font-style:normal;font-variant:normal;font-weight:normal;font-stretch:normal;font-size:10.5833px;line-height:1.47;font-family:'Segoe UI';-inkscape-font-specification:'Segoe UI';letter-spacing:0.256646px;word-spacing:0px;display:inline;fill:#ffffff;stroke-width:0.1;stroke-linejoin:bevel"
         x="54.71846"
         y="115.45454"
         id="text1020"
         inkscape:label="Your PC ran into a problem"><tspan
           sodipodi:role="line"
           id="tspan1018"
           style="font-size:10.5833px;stroke-width:0.1"
           x="54.71846"
           y="115.45454"
           dx="-0.079999998 0.0099999998 -0.0099999998 0 -0.1"
           dy="0 0 0 0 0">Y<tspan
   style="letter-spacing:-0.261937px"
   id="tspan1088">our</tspan> <tspan
   style="letter-spacing:-0.0608542px"
   id="tspan1310">PC ran into a problem and needs to restart. We're</tspan></tspan><tspan
           sodipodi:role="line"
           style="font-size:10.5833px;letter-spacing:-0.230188px;display:inline;stroke-width:0.1"
           x="54.71846"
           y="131.01199"
           id="tspan1084"
           dx="0.95999998 0 0 0 -1.09"><tspan
   style="letter-spacing:-0.362479px"
   id="tspan1314"
   dx="1.09 -0.38999999 0.23">just</tspan> <tspan
   style="letter-spacing:-0.079375px"
   id="tspan1418"
   dx="1.3099999 0 0 0 0 0 0 0 0 0 -1.47 -0.15000001"><tspan
   style="letter-spacing:-0.129646px"
   id="tspan1478"
   dx="1.47">collecting</tspan> <tspan
   style="letter-spacing:-0.0661458px"
   id="tspan1422"
   dx="1.62">some error info, and then we'll restart for</tspan></tspan></tspan><tspan
           sodipodi:role="line"
           style="font-size:10.5833px;letter-spacing:-0.0661458px;stroke-width:0.1"
           x="54.71846"
           y="146.56944"
           dx="0 0 0 0 -0.079999998 0 0 0 -0.1"
           dy="0 0 0 0 0 0 0 0 0"
           id="tspan1082">you.</tspan><tspan
           sodipodi:role="line"
           style="font-size:10.5833px;stroke-width:0.1"
           x="54.71846"
           y="162.12689"
           id="tspan1074" /></text><text
         xml:space="preserve"
         style="font-style:normal;font-variant:normal;font-weight:normal;font-stretch:normal;font-size:55.0333px;line-height:0;font-family:'Segoe UI';-inkscape-font-specification:'Segoe UI';fill:#ffffff;stroke-width:0.1;stroke-linejoin:bevel"
         x="50.161503"
         y="87.32563"
         id="text528"
         inkscape:label=":("><tspan
           sodipodi:role="line"
           id="tspan526"
           style="font-style:normal;font-variant:normal;font-weight:normal;font-stretch:normal;font-size:55.0333px;font-family:'Segoe UI';-inkscape-font-specification:'Segoe UI';fill:#ffffff;stroke-width:0.1"
           x="50.161503"
           y="87.32563"
           rotate="0 0 0">:(</tspan></text></g></g><metadata
     id="metadata2512"><rdf:RDF><cc:Work
         rdf:about=""><dc:description>This uses font references to Segoe UI. For reference image, refer to https://commons.wikimedia.org/wiki/File:Bsodwindows10.png</dc:description></cc:Work></rdf:RDF></metadata></svg>
