<?xml version="1.0" encoding="UTF-8" standalone="no"?>
<svg
   version="1.0"
   width="768.000000pt"
   height="790.000000pt"
   viewBox="0 0 768.000000 790.000000"
   preserveAspectRatio="xMidYMid meet"
   id="svg60"
   sodipodi:docname="BadDragon_Kali.svg"
   xml:space="preserve"
   inkscape:version="1.2 (dc2aedaf03, 2022-05-15)"
   xmlns:inkscape="http://www.inkscape.org/namespaces/inkscape"
   xmlns:sodipodi="http://sodipodi.sourceforge.net/DTD/sodipodi-0.dtd"
   xmlns:xlink="http://www.w3.org/1999/xlink"
   xmlns="http://www.w3.org/2000/svg"
   xmlns:svg="http://www.w3.org/2000/svg"><defs
     id="defs64"><linearGradient
       id="linearGradient11527"
       inkscape:swatch="solid"><stop
         style="stop-color:#000000;stop-opacity:1;"
         offset="0"
         id="stop11525" /></linearGradient><linearGradient
       id="linearGradient8464"
       inkscape:swatch="solid"><stop
         style="stop-color:#ff0000;stop-opacity:1;"
         offset="0"
         id="stop8462" /></linearGradient><linearGradient
       id="Jaw"
       inkscape:swatch="solid"><stop
         style="stop-color:#ff0000;stop-opacity:1;"
         offset="0"
         id="stop7730" /></linearGradient><linearGradient
       id="Ear"
       inkscape:swatch="solid"><stop
         style="stop-color:#000000;stop-opacity:1;"
         offset="0"
         id="stop7724" /></linearGradient><linearGradient
       id="Face"
       inkscape:swatch="solid"><stop
         style="stop-color:#000000;stop-opacity:1;"
         offset="0"
         id="stop7718" /></linearGradient><linearGradient
       id="Eye"
       inkscape:swatch="solid"><stop
         style="stop-color:#ffffff;stop-opacity:1;"
         offset="0"
         id="stop7712" /></linearGradient><linearGradient
       inkscape:collect="always"
       xlink:href="#Eye"
       id="linearGradient7716"
       x1="2954.0779"
       y1="3685.3807"
       x2="3715.5144"
       y2="3685.3807"
       gradientUnits="userSpaceOnUse" /></defs><sodipodi:namedview
     id="namedview62"
     pagecolor="#d6d6d6"
     bordercolor="#000000"
     borderopacity="0.25"
     inkscape:showpageshadow="2"
     inkscape:pageopacity="0"
     inkscape:pagecheckerboard="true"
     inkscape:deskcolor="#ffffff"
     inkscape:document-units="pt"
     showgrid="false"
     inkscape:zoom="1.4142136"
     inkscape:cx="637.45676"
     inkscape:cy="741.04791"
     inkscape:window-width="2560"
     inkscape:window-height="1387"
     inkscape:window-x="3992"
     inkscape:window-y="638"
     inkscape:window-maximized="1"
     inkscape:current-layer="svg60" /><g
     transform="matrix(0.1,0,0,-0.1,0,789.99998)"
     fill="#ff0000"
     stroke="none"
     id="g42"
     style="display:inline"
     inkscape:label="Bottom Color"><path
       d="m 4935.0049,3154.0005 c -169,-20 -280,-51 -398,-110 -140,-70 -250,-160 -382,-314 -51,-60 -104,-159 -190,-360 -35,-80 -68,-157 -75,-172 -9,-20 -40,-38 -129,-79 -64,-28 -149,-67 -189,-85 -41,-19 -75,-34 -77,-34 -2,0 -32,-13 -67,-29 -35,-16 -110,-50 -168,-76 -58,-26 -130,-58 -160,-72 -98,-44 -614.9999,-276 -869.9999,-390 -80,-36 -167,-75 -195,-87 -27,-13 -108,-49 -180,-81 -71,-31 -137,-65 -146,-74 -10,-10 -23,-57 -33,-121 -9,-57 -22,-110.99996 -30,-117.99996 -7,-7 -208,-81.99995 -446,-165.99995 l -433.00005,-153 -110,-127.99999 c -89.99999,-105 -106.99999,-130 -94.99999,-140 7,-7 140.99999,-48 297.99998,-90 157.00006,-43 348.00006,-95 426.00006,-116 77,-22 153,-39 168,-39 15,0 134,34 264,76 306,98 442,141 687,219 110,35 259,82 330,105 120.9999,38.99999 186.9999,59.99999 479.9999,152.99999 124,40 135,41 585,63 173,8 402,19 508,24 515,26 590,30 632,30 52,0 25,-20 575,429.99991 417,341 455,373 576,472 300,247 737,603 756,615 21,14 21,15 -35,66 -50,46 -612,492 -763,605 -50,37 -73,46 -215,81 -174,43 -352,75 -513,91 -96,9 -318,11 -386,4 z"
       id="path34-7"
       style="display:inline;stroke-width:1;fill-opacity:1;fill:#19baff;stroke:none;stroke-opacity:1"
       inkscape:label="Jaw - Filled In"
       sodipodi:nodetypes="cscccccsssccccsccccccccsccccccscccccccc" /></g><g
     transform="matrix(0.1,0,0,-0.1,0,790)"
     fill="#000000"
     stroke="none"
     id="g48"
     inkscape:label="Top Color"
     style="display:inline"><path
       d="M 6573,7718 C 6546,7694 6300,7486 6026,7255 4673,6116 4162,5685 4133,5659 c -29,-26 -33,-36 -33,-78 0,-49 1,-50 96,-145 l 97,-96 h 756 c 416,0 761,4 768,8 6,4 20,34 32,67 11,33 75,220 141,415 67,195 182,533 257,750 74,217 159,467 189,555 31,88 87,252 125,365 37,113 73,213 79,222 30,52 -6,50 -67,-4 z"
       id="path44"
       inkscape:label="Ear"
       style="display:inline;fill:#2777ff;fill-opacity:1" /><path
       d="m 3868,5451 c -57,-49 -191,-164 -298,-256 -107,-91 -210,-180 -227,-197 l -33,-31 v -178 c 0,-129 -3,-179 -12,-179 -6,0 -35,24 -64,53 l -52,52 5,66 c 6,73 -4,91 -34,61 -18,-18 -240,-206 -299,-252 -17,-14 -107,-89 -201,-167 -169,-141 -170,-142 -309,-333 -76,-105 -146,-201 -154,-213 -27,-39 -114,-160 -165,-230 -28,-38 -68,-94 -91,-125 -186,-260 -350,-480 -368,-492 -25,-19 -214,-150 -326,-228 -47,-32 -175,-121 -285,-198 -110,-77 -273,-191 -363,-253 -89,-62 -166,-121 -171,-130 -5,-9 -23,-68 -41,-131 -18,-63 -54,-189 -80,-280 -27,-91 -69,-237 -94,-325 -25,-88 -54,-185 -63,-215 -23,-75 -21,-114 9,-190 14,-36 60,-155 103,-265 43,-110 86,-222 97,-250 11,-27 23,-61 27,-75 15,-49 38,-36 179,102 101,98 150,138 182,150 106,39 417,151 565,202 214,76 208,72 217,129 5,26 11,68 16,94 5,36 13,50 32,60 35,18 322,153 325,153 3,0 107,49 329,154 65,31 120,56 121,56 2,0 54,24 116,53 63,30 175,82 249,117 74,34 206,96 292,136 86,41 185,87 220,103 180,83 439,205 487,229 52,26 57,32 138,176 57,100 81,152 75,158 -6,6 -41,13 -79,15 -76,6 -98,17 -62,32 34,14 317,91 334,91 8,0 27,15 42,32 196,230 394,353 648,404 106,21 360,29 505,15 166,-16 374,-53 544,-96 121,-31 147,-41 195,-77 157,-118 713,-559 757,-600 28,-26 55,-48 61,-48 5,0 61,41 124,90 63,50 139,110 169,133 30,24 99,78 152,120 l 96,77 38,97 c 20,54 55,143 76,197 21,55 38,106 38,113 0,11 -117,13 -625,13 -352,0 -625,4 -625,9 0,12 15,23 85,62 33,18 111,61 174,96 63,35 116,63 118,63 2,0 20,11 41,23 20,13 71,42 112,64 224,120 468,258 486,275 12,11 24,29 27,41 3,12 44,121 91,242 47,121 86,226 86,233 0,9 -189,12 -911,12 -724,0 -910,3 -907,13 3,6 22,21 44,33 35,18 129,69 414,222 36,19 79,42 95,52 17,10 75,41 130,70 206,110 280,151 291,163 6,7 32,71 58,142 26,72 57,153 68,182 11,29 17,57 13,63 -4,7 -405,10 -1338,10 H 4156 l -83,82 -83,83 v 62 c 0,34 -4,64 -9,68 -6,3 -56,-35 -113,-84 z M 3711,3991 c -6,-10 -26,-40 -46,-65 -19,-25 -35,-48 -35,-51 0,-3 -31,-51 -70,-107 l -70,-102 v -93 c 0,-50 -4,-94 -9,-98 -9,-5 -440,-102 -504,-113 -22,-3 -26,-1 -21,11 3,9 16,23 29,31 13,8 92,74 177,146 84,73 162,139 173,149 11,9 98,83 194,164 95,81 177,147 182,147 6,0 5,-8 0,-19 z"
       id="path46"
       style="display:inline;fill:#2777ff;fill-opacity:1"
       inkscape:label="Face" /></g><g
     transform="matrix(0.1,0,0,-0.1,0,790)"
     fill="#ffffff"
     stroke="none"
     id="g58"
     style="display:inline"
     inkscape:label="Outline"><path
       d="m 6600,7873 c -70,-48 -2504,-2104 -2556,-2159 -34,-35 -70,-64 -80,-64 -20,-1 -72,-37 -133,-92 -20,-18 -112,-98 -206,-178 -93,-79 -183,-156 -200,-171 -16,-14 -64,-55 -105,-91 -41,-35 -84,-81 -95,-101 -12,-22 -27,-37 -38,-37 -28,0 -49,-17 -430,-334 l -349,-290 -146,-200 c -80,-111 -160,-221 -176,-246 -17,-25 -36,-52 -43,-60 -19,-23 -86,-116 -266,-365 -241,-335 -258,-357 -307,-392 -48,-35 -257,-182 -467,-327 C 933,2717 832,2647 780,2610 728,2573 624,2501 550,2450 365,2322 352,2312 336,2287 324,2270 175,1771 140,1635 c -4,-16 -24,-86 -44,-155 -20,-69 -43,-150 -52,-180 -8,-30 -20,-65 -25,-78 -5,-13 -9,-30 -9,-38 0,-13 79,-234 115,-319 30,-71 145,-368 166,-428 7,-20 25,-48 39,-61 30,-28 179,-116 197,-116 7,0 77,-18 156,-39 176,-49 287,-79 352,-96 28,-7 75,-20 105,-29 106,-29 245,-67 280,-76 41,-11 49,-9 205,41 222,72 269,87 450,144 99,32 212,68 250,80 39,13 151,49 250,80 99,31 234,74 300,95 66,22 158,51 205,66 47,14 125,39 174,55 75,24 116,30 265,38 368,21 593,32 791,41 498,22 667,31 702,41 24,6 91,53 187,132 82,67 190,156 241,197 99,80 219,179 260,214 14,11 59,48 100,81 41,33 84,67 95,77 11,9 52,43 91,75 39,32 113,92 165,135 52,42 189,153 304,248 116,94 228,186 249,203 22,18 44,37 50,42 12,11 98,79 231,184 44,35 96,76 115,91 19,15 82,65 140,111 58,46 135,107 173,136 37,30 74,64 82,77 28,42 175,438 175,470 0,17 -7,42 -16,55 -35,49 -51,51 -526,51 -279,0 -438,4 -432,9 8,9 411,234 614,344 41,22 81,45 89,51 14,11 59,102 85,173 7,21 45,121 85,223 39,102 71,195 71,208 0,38 -27,78 -64,96 -30,14 -108,16 -750,16 -402,0 -716,4 -716,9 0,5 28,22 63,39 59,30 145,75 302,161 104,57 186,101 226,122 60,32 85,69 129,189 23,63 57,156 76,207 39,104 41,124 18,163 -36,59 -41,60 -534,60 -353,0 -450,3 -450,13 0,6 7,30 15,52 63,179 128,365 135,390 5,17 41,122 80,235 39,113 93,270 120,350 27,80 81,237 120,350 39,113 93,270 120,350 27,80 89,264 139,410 50,146 91,276 91,290 0,33 -24,66 -60,85 -38,20 -70,19 -100,-2 z m 50,-123 c 0,-6 -5,-18 -10,-28 -6,-9 -42,-109 -79,-222 -38,-113 -94,-277 -125,-365 -30,-88 -115,-338 -189,-555 -75,-217 -190,-555 -257,-750 -66,-195 -130,-382 -141,-415 -12,-33 -26,-63 -32,-67 -7,-4 -352,-8 -768,-8 h -756 l -97,96 c -95,95 -96,96 -96,145 0,42 4,52 33,78 29,26 540,457 1893,1596 274,231 520,439 547,463 46,40 77,53 77,32 z M 3990,5467 v -62 l 83,-83 83,-82 h 1331 c 933,0 1334,-3 1338,-10 4,-6 -2,-34 -13,-63 -11,-29 -42,-110 -68,-182 -26,-71 -52,-135 -58,-142 -11,-12 -85,-53 -291,-163 -55,-29 -113,-60 -130,-70 -16,-10 -59,-33 -95,-52 -285,-153 -379,-204 -414,-222 -22,-12 -41,-27 -44,-33 -3,-10 183,-13 907,-13 722,0 911,-3 911,-12 0,-7 -39,-112 -86,-233 -47,-121 -88,-230 -91,-242 -3,-12 -15,-30 -27,-41 -18,-17 -262,-155 -486,-275 -41,-22 -92,-51 -112,-64 -21,-12 -39,-23 -41,-23 -2,0 -55,-28 -118,-63 -63,-35 -141,-78 -174,-96 -70,-39 -85,-50 -85,-62 0,-5 273,-9 625,-9 508,0 625,-2 625,-13 0,-7 -17,-58 -38,-113 -21,-54 -56,-143 -76,-197 l -38,-97 -96,-77 c -142,-112 -184,-146 -347,-273 -128,-99 -572,-459 -874,-708 -121,-99 -159,-131 -576,-472 -550,-450 -523,-430 -575,-430 -42,0 -117,-4 -632,-30 -106,-5 -335,-16 -508,-24 -450,-22 -461,-23 -585,-63 -60,-19 -165,-52 -232,-74 -68,-21 -180,-57 -250,-80 -71,-22 -218,-69 -328,-104 -245,-78 -381,-121 -687,-219 -130,-42 -249,-76 -264,-76 -15,0 -91,17 -168,39 -78,21 -269,73 -426,116 -157,42 -291,83 -298,90 -12,10 5,35 95,140 l 110,128 433,153 c 238,84 439,159 446,166 8,7 21,61 30,118 10,64 23,111 33,121 9,9 75,43 146,74 72,32 153,68 180,81 28,12 115,51 195,87 255,114 772,346 870,390 30,14 102,46 160,72 58,26 133,60 168,76 35,16 65,29 67,29 2,0 36,15 77,34 40,18 126,57 190,86 l 117,52 40,92 c 22,50 60,139 86,198 26,59 62,133 81,164 36,59 40,74 24,74 -13,0 -300,-79 -329,-91 -36,-15 -14,-26 62,-32 38,-2 73,-9 79,-15 6,-6 -18,-58 -75,-158 -81,-144 -86,-150 -138,-176 -48,-24 -307,-146 -487,-229 -35,-16 -134,-62 -220,-103 -86,-40 -218,-102 -292,-136 -74,-35 -186,-87 -249,-117 -62,-29 -114,-53 -116,-53 -1,0 -56,-25 -121,-56 -222,-105 -326,-154 -329,-154 -3,0 -290,-135 -325,-153 -19,-10 -27,-24 -32,-60 -5,-26 -11,-68 -16,-94 -9,-57 -3,-53 -217,-129 C 1157,893 846,781 740,742 708,730 659,690 558,592 417,454 394,441 379,490 c -4,14 -16,48 -27,75 -11,28 -54,140 -97,250 -43,110 -89,229 -103,265 -30,76 -32,115 -9,190 9,30 38,127 63,215 25,88 67,234 94,325 26,91 62,217 80,280 18,63 36,122 41,131 5,9 82,68 171,130 90,62 253,176 363,253 110,77 238,166 285,198 112,78 301,209 326,228 18,12 182,232 368,492 23,31 63,87 91,125 51,70 138,191 165,230 8,12 78,108 154,213 139,191 140,192 309,333 94,78 184,153 201,167 59,46 281,234 299,252 30,30 40,12 34,-61 l -5,-66 52,-52 c 29,-29 58,-53 64,-53 9,0 12,50 12,179 v 178 l 33,31 c 17,17 120,106 227,197 107,92 241,207 298,256 57,49 107,87 113,84 5,-4 9,-34 9,-68 z"
       id="path50"
       inkscape:label="Outline"
       style="display:inline" /><path
       d="m 3529,3863 c -96,-81 -183,-155 -194,-164 -11,-10 -89,-76 -173,-149 -85,-72 -164,-138 -177,-146 -13,-8 -26,-22 -29,-31 -5,-12 -1,-14 21,-11 64,11 495,108 504,113 5,4 9,48 9,98 v 93 l 70,102 c 39,56 70,104 70,107 0,3 16,26 35,51 44,57 59,84 46,84 -5,0 -87,-66 -182,-147 z"
       id="path52"
       inkscape:label="Eye"
       style="display:inline;fill:url(#linearGradient7716);fill-opacity:1" /></g><g
     clip-rule="evenodd"
     fill-rule="evenodd"
     stroke-width="0.808093"
     transform="matrix(0.93917963,0,0,0.9572784,-9.2452688,69.268808)"
     id="g7026"
     inkscape:label="Kali"><path
       d="m 562.71775,534.21324 c 0.0431,0.19575 0.0751,0.33745 0.12532,0.45462 9.63087,27.14712 19.27747,54.29712 28.90823,81.43881 -0.006,0.0617 0.0486,0.12591 0.0822,0.16613 l 0.0553,0.0662 c 0.0225,0.027 0.0677,0.0126 0.0998,0.0391 l 10.69513,-8.58433 0.0228,-0.0118 c -0.1163,-0.30451 -0.19219,-0.58591 -0.30523,-0.86543 -2.26728,-6.03419 -4.52594,-12.06198 -6.79202,-18.10384 -0.35489,-0.97859 -0.71479,-1.95956 -1.09885,-2.91987 -0.16572,-0.39653 -0.14242,-0.69232 0.22561,-0.92065 0.11883,-0.0743 0.23419,-0.18795 0.34428,-0.27633 l 23.37855,-18.76453 c 6.99559,4.1588 13.94105,8.28717 20.87934,12.42221 l 10.94319,-8.78347 c -25.53264,-14.81553 -50.96159,-29.57453 -76.37205,-44.3406 z m -40.95578,33.2284 c -0.6099,0.48951 -0.84623,0.97561 -0.85387,1.77192 -0.10212,16.19057 -0.22244,32.3985 -0.35298,48.59325 -0.005,0.2104 -0.0541,0.43395 -0.10864,0.83981 L 500.4287,594.64079 c -1.65686,-1.98694 -3.28522,-4.00814 -4.97709,-5.96867 l -10.24813,8.22555 52.49012,62.94745 c 0.93261,-0.51019 9.80931,-7.68512 10.23486,-8.2734 l -0.66737,-0.80031 -0.0321,0.0189 -18.30933,-21.95702 c -0.41293,-0.49519 -0.5636,-0.95596 -0.4209,-1.5945 0.5776,-2.70208 1.10099,-5.42365 1.63288,-8.13583 0.0635,-0.25791 0.13329,-0.49749 0.21482,-0.81655 0.37505,0.0884 0.6865,0.15718 1.00161,0.25445 6.26661,1.8207 12.5329,3.63543 18.79194,5.45078 7.69681,2.24744 15.38004,4.46717 23.04952,6.69611 0.43649,0.1364 0.79725,0.2146 1.2259,-0.12942 3.65465,-2.95434 7.31678,-5.89226 10.97806,-8.83094 0.12117,-0.0973 0.21211,-0.23822 0.36872,-0.43692 -17.94908,-5.29889 -35.79723,-10.54335 -53.7288,-15.83854 0.0526,-3.19843 0.11121,-6.28194 0.12979,-9.41044 0.0558,-3.09264 0.10055,-6.18747 0.14278,-9.29078 0.0439,-3.09674 0.0743,-6.18645 0.12087,-9.28843 0.0398,-3.10355 0.0851,-6.20539 0.11137,-9.28944 0.0486,-3.07885 0.0848,-6.14928 0.1078,-9.44707 l -0.92374,0.74145 c -3.31691,2.66228 -6.61566,5.34287 -9.96025,7.97285 z m 83.09912,-66.588 c 0.48534,0.9243 51.99161,62.60914 52.58659,62.99548 l 36.86551,-29.58971 -7.31309,-8.77002 -17.78352,14.27375 c -1.49497,1.19994 -2.98997,2.42086 -4.48879,3.60288 -1.47753,1.16493 -2.88306,2.40457 -4.47805,3.53784 l -41.1516,-49.35002 -0.0168,-9.8e-4 c -1.35928,-1.63008 -2.64622,-3.29421 -4.09967,-4.82283 z m 43.92891,-35.22652 52.52175,62.98536 10.20952,-8.19458 c -0.0545,-0.13308 -0.0756,-0.21046 -0.13521,-0.28186 l -52.01974,-62.38334 -0.005,0.005 c -0.0814,-0.0978 -0.14927,-0.17927 -0.26779,-0.25351 -0.0225,-0.0269 -0.0634,-0.006 -0.0795,-0.025 -0.0104,-0.0126 -0.0694,-0.002 -0.0694,-0.002 z m -72.98568,73.29646 c 0.24631,0.0784 0.41497,0.11176 0.53525,0.19714 7.04201,5.01796 14.55301,9.34167 21.90598,13.90563 3.05825,1.90041 6.13596,3.76054 9.21132,5.64966 0.26313,0.17868 0.52629,0.35766 0.85006,0.57989 l -18.3629,14.7388 c -0.14487,-0.33782 -0.27058,-0.62843 -0.38629,-0.9262 -3.04881,-7.97074 -6.04351,-15.93853 -9.16141,-23.88171 -1.25446,-3.1913 -2.78237,-6.29614 -4.20382,-9.4368 -0.10143,-0.24298 -0.2259,-0.46885 -0.38819,-0.82705 z"
       filter="url(#a)"
       opacity="0.3"
       stroke-width="1.04434"
       id="path7022"
       sodipodi:nodetypes="cccsscccccccscccccccccsccccccscccccccscccccccsccccccscccccccccscccsccccccccccccc"
       inkscape:label="Lower Shadow"
       style="display:inline" /><path
       d="m 542.0659,650.69376 -18.30876,-21.95632 c -0.41296,-0.49522 -0.56391,-0.95455 -0.42125,-1.59318 0.57761,-2.7021 1.10053,-5.42394 1.63241,-8.13598 0.0636,-0.25794 0.13407,-0.49832 0.21558,-0.81736 0.37506,0.0884 0.68611,0.1575 1.00122,0.25479 6.26661,1.82068 12.53176,3.63522 18.79073,5.45063 7.6968,2.24744 15.38002,4.46716 23.05008,6.69679 0.4365,0.13641 0.79825,0.2151 1.22689,-0.12896 3.65463,-2.95434 7.31605,-5.89313 10.97666,-8.83129 0.12117,-0.0974 0.21232,-0.23759 0.36892,-0.43627 -17.94909,-5.2989 -35.79669,-10.54268 -53.72824,-15.83787 0.0526,-3.19843 0.11021,-6.28321 0.12939,-9.41157 0.0558,-3.09264 0.10055,-6.18697 0.14278,-9.29025 0.0439,-3.09673 0.0739,-6.18731 0.12057,-9.28923 0.0398,-3.10354 0.0855,-6.20481 0.11168,-9.2888 0.0486,-3.07886 0.0851,-6.1495 0.1081,-9.4473 l -0.92349,0.74125 c -3.31691,2.66227 -6.61533,5.34325 -9.95992,7.97324 -0.60988,0.48949 -0.8471,0.97494 -0.85485,1.7713 -0.10211,16.19056 -0.22243,32.39848 -0.35227,48.59272 -0.005,0.21038 -0.0539,0.43403 -0.10845,0.83991 L 495.2659,594.5442 c -1.65686,-1.98696 -3.28455,-4.00736 -4.97645,-5.96786 l -10.24809,8.22553 52.48955,62.94677 c 0.93263,-0.51016 9.81007,-7.68422 10.23556,-8.27253 l -0.66783,-0.8009 z m 55.47794,-43.00792 c -0.1163,-0.30451 -0.19269,-0.58489 -0.30576,-0.86438 -2.26726,-6.03423 -4.52613,-12.06186 -6.79221,-18.10369 -0.35487,-0.9786 -0.71482,-1.96014 -1.0989,-2.92051 -0.16574,-0.39653 -0.14236,-0.69236 0.22567,-0.92068 0.11885,-0.0742 0.23431,-0.18808 0.34442,-0.27643 l 23.37786,-18.76401 c 6.99559,4.15877 13.94127,8.28699 20.87953,12.42204 l 10.94391,-8.78401 c -25.53277,-14.81556 -50.9624,-29.57403 -76.37228,-44.33943 l -11.19071,8.98206 c 0.0431,0.19577 0.0742,0.33872 0.12452,0.45588 9.63085,27.14712 19.27758,54.29594 28.90832,81.43759 -0.006,0.0617 0.0482,0.12626 0.0817,0.16648 l 0.0558,0.0667 c 0.0225,0.0272 0.0678,0.0128 0.1,0.0394 l 10.69514,-8.58433 z m -13.15148,-34.71153 c -3.04882,-7.97078 -6.04379,-15.93833 -9.1617,-23.88152 -1.25443,-3.1913 -2.7824,-6.29523 -4.20364,-9.4358 -0.10146,-0.24299 -0.2259,-0.46872 -0.38816,-0.82687 0.24633,0.0785 0.41518,0.1113 0.53546,0.1967 7.04201,5.01796 14.55347,9.34131 21.907,13.9059 3.05823,1.90042 6.1348,3.75971 9.21,5.64851 0.26314,0.17868 0.52558,0.35799 0.84937,0.58023 l -18.3629,14.73879 c -0.1449,-0.33783 -0.2706,-0.62747 -0.38626,-0.92521 z m 29.52669,-75.5182 c -1.35929,-1.63008 -2.64608,-3.29347 -4.09953,-4.82209 l -10.12104,8.12356 c 0.48535,0.9243 51.99146,62.60812 52.58642,62.9945 l 36.86486,-29.58918 -7.31198,-8.7687 -17.78286,14.27323 c -1.49496,1.19992 -2.99116,2.4218 -4.49003,3.60389 -1.47752,1.16491 -2.88308,2.4039 -4.47806,3.53716 l -41.1516,-49.35002 z m 40.27881,-39.79427 c -0.0814,-0.0978 -0.14926,-0.17899 -0.26782,-0.25323 -0.0225,-0.0271 -0.0625,-0.007 -0.0784,-0.0265 -0.0104,-0.0126 -0.069,-9e-4 -0.069,-9e-4 l -10.15566,8.15132 52.52119,62.98469 10.20953,-8.19456 c -0.0544,-0.13308 -0.0752,-0.21022 -0.13489,-0.28163 l -52.01983,-62.3836 z"
       fill="#ffffff"
       stroke-width="0.694516"
       id="path7024"
       sodipodi:nodetypes="cscccccccscccccccsccccscccccccccccscccccccssccccccccccccccccccccsccccccsccccscc"
       style="display:inline"
       inkscape:label="Upper White"
       sodipodi:insensitive="true" /></g></svg>
