<?xml version="1.0" encoding="UTF-8" standalone="no"?>
<svg
   version="1.0"
   width="768.000000pt"
   height="790.000000pt"
   viewBox="0 0 768.000000 790.000000"
   preserveAspectRatio="xMidYMid meet"
   id="svg60"
   sodipodi:docname="BadDragon_Nix.svg"
   xml:space="preserve"
   inkscape:version="1.2 (dc2aedaf03, 2022-05-15)"
   xmlns:inkscape="http://www.inkscape.org/namespaces/inkscape"
   xmlns:sodipodi="http://sodipodi.sourceforge.net/DTD/sodipodi-0.dtd"
   xmlns="http://www.w3.org/2000/svg"
   xmlns:svg="http://www.w3.org/2000/svg"><defs
     id="defs64"><inkscape:path-effect
       effect="powerstroke"
       id="path-effect4665"
       is_visible="true"
       lpeversion="1"
       offset_points="0.49365264,0.35576393"
       not_jump="true"
       sort_points="true"
       interpolator_type="CentripetalCatmullRom"
       interpolator_beta="0.75"
       start_linecap_type="round"
       linejoin_type="spiro"
       miter_limit="4"
       scale_width="1"
       end_linecap_type="round" /><inkscape:path-effect
       effect="simplify"
       id="path-effect4663"
       is_visible="true"
       lpeversion="1"
       steps="1"
       threshold="0.0047745358"
       smooth_angles="0"
       helper_size="0"
       simplify_individual_paths="false"
       simplify_just_coalesce="false"
       step="1" /><linearGradient
       id="linearGradient23389"
       inkscape:swatch="solid"><stop
         style="stop-color:#a1002f;stop-opacity:1;"
         offset="0"
         id="stop23387" /></linearGradient><linearGradient
       id="linearGradient21147"
       inkscape:swatch="solid"><stop
         style="stop-color:#d70751;stop-opacity:1;"
         offset="0"
         id="stop21145" /></linearGradient><linearGradient
       id="linearGradient19689"
       inkscape:swatch="solid"><stop
         style="stop-color:#ff0000;stop-opacity:1;"
         offset="0"
         id="stop19687" /></linearGradient><linearGradient
       id="linearGradient18231"
       inkscape:swatch="solid"><stop
         style="stop-color:#000000;stop-opacity:1;"
         offset="0"
         id="stop18229" /></linearGradient><linearGradient
       id="linearGradient18225"
       inkscape:swatch="solid"><stop
         style="stop-color:#d70751;stop-opacity:1;"
         offset="0"
         id="stop18223" /></linearGradient><linearGradient
       id="linearGradient18219"
       inkscape:swatch="solid"><stop
         style="stop-color:#2777ff;stop-opacity:1;"
         offset="0"
         id="stop18217" /></linearGradient><linearGradient
       id="linearGradient18213"
       inkscape:swatch="solid"><stop
         style="stop-color:#19baff;stop-opacity:1;"
         offset="0"
         id="stop18211" /></linearGradient><linearGradient
       id="linearGradient11527"
       inkscape:swatch="solid"><stop
         style="stop-color:#000000;stop-opacity:1;"
         offset="0"
         id="stop11525" /></linearGradient><linearGradient
       id="linearGradient8464"
       inkscape:swatch="solid"><stop
         style="stop-color:#ff0000;stop-opacity:1;"
         offset="0"
         id="stop8462" /></linearGradient><linearGradient
       id="Jaw"
       inkscape:swatch="solid"><stop
         style="stop-color:#ff0000;stop-opacity:1;"
         offset="0"
         id="stop7730" /></linearGradient><linearGradient
       id="Ear"
       inkscape:swatch="solid"><stop
         style="stop-color:#000000;stop-opacity:1;"
         offset="0"
         id="stop7724" /></linearGradient><linearGradient
       id="Face"
       inkscape:swatch="solid"><stop
         style="stop-color:#000000;stop-opacity:1;"
         offset="0"
         id="stop7718" /></linearGradient><linearGradient
       id="Eye"
       inkscape:swatch="solid"><stop
         style="stop-color:#ffffff;stop-opacity:1;"
         offset="0"
         id="stop7712" /></linearGradient></defs><sodipodi:namedview
     id="namedview62"
     pagecolor="#d6d6d6"
     bordercolor="#000000"
     borderopacity="0.25"
     inkscape:showpageshadow="2"
     inkscape:pageopacity="0"
     inkscape:pagecheckerboard="true"
     inkscape:deskcolor="#ffffff"
     inkscape:document-units="pt"
     showgrid="false"
     inkscape:zoom="0.93167484"
     inkscape:cx="574.77134"
     inkscape:cy="545.25461"
     inkscape:window-width="2560"
     inkscape:window-height="1387"
     inkscape:window-x="3992"
     inkscape:window-y="638"
     inkscape:window-maximized="1"
     inkscape:current-layer="text5407" /><g
     transform="matrix(0.1,0,0,-0.1,0,789.99998)"
     fill="#ff0000"
     stroke="none"
     id="g42"
     style="display:inline;fill:#7ebae4;fill-opacity:1"
     inkscape:label="Bottom Color"
     sodipodi:insensitive="true"><path
       d="m 4935.0049,3154.0005 c -169,-20 -280,-51 -398,-110 -140,-70 -250,-160 -382,-314 -51,-60 -104,-159 -190,-360 -35,-80 -68,-157 -75,-172 -9,-20 -40,-38 -129,-79 -64,-28 -149,-67 -189,-85 -41,-19 -75,-34 -77,-34 -2,0 -32,-13 -67,-29 -35,-16 -110,-50 -168,-76 -58,-26 -130,-58 -160,-72 -98,-44 -614.9999,-276 -869.9999,-390 -80,-36 -167,-75 -195,-87 -27,-13 -108,-49 -180,-81 -71,-31 -137,-65 -146,-74 -10,-10 -23,-57 -33,-121 -9,-57 -22,-110.99996 -30,-117.99996 -7,-7 -208,-81.99995 -446,-165.99995 l -433.00005,-153 -110,-127.99999 c -89.99999,-105 -106.99999,-130 -94.99999,-140 7,-7 140.99999,-48 297.99998,-90 157.00006,-43 348.00006,-95 426.00006,-116 77,-22 153,-39 168,-39 15,0 134,34 264,76 306,98 442,141 687,219 110,35 259,82 330,105 120.9999,38.99999 186.9999,59.99999 479.9999,152.99999 124,40 135,41 585,63 173,8 402,19 508,24 515,26 590,30 632,30 52,0 25,-20 575,429.99991 417,341 455,373 576,472 300,247 737,603 756,615 21,14 21,15 -35,66 -50,46 -612,492 -763,605 -50,37 -73,46 -215,81 -174,43 -352,75 -513,91 -96,9 -318,11 -386,4 z"
       id="path34-7"
       style="display:inline;fill:#7ebae4;fill-opacity:1;stroke:none;stroke-width:1;stroke-opacity:1"
       inkscape:label="Jaw - Filled In"
       sodipodi:nodetypes="cscccccsssccccsccccccccsccccccscccccccc" /></g><g
     transform="matrix(0.1,0,0,-0.1,0,790)"
     fill="#000000"
     stroke="none"
     id="g48"
     inkscape:label="Top Color"
     style="display:inline;fill:#5277c3;fill-opacity:1"
     sodipodi:insensitive="true"><path
       d="M 6573,7718 C 6546,7694 6300,7486 6026,7255 4673,6116 4162,5685 4133,5659 c -29,-26 -33,-36 -33,-78 0,-49 1,-50 96,-145 l 97,-96 h 756 c 416,0 761,4 768,8 6,4 20,34 32,67 11,33 75,220 141,415 67,195 182,533 257,750 74,217 159,467 189,555 31,88 87,252 125,365 37,113 73,213 79,222 30,52 -6,50 -67,-4 z"
       id="path44"
       inkscape:label="Ear"
       style="display:inline;fill:#5277c3;fill-opacity:1" /><path
       d="m 3868,5451 c -57,-49 -191,-164 -298,-256 -107,-91 -210,-180 -227,-197 l -33,-31 v -178 c 0,-129 -3,-179 -12,-179 -6,0 -35,24 -64,53 l -52,52 5,66 c 6,73 -4,91 -34,61 -18,-18 -240,-206 -299,-252 -17,-14 -107,-89 -201,-167 -169,-141 -170,-142 -309,-333 -76,-105 -146,-201 -154,-213 -27,-39 -114,-160 -165,-230 -28,-38 -68,-94 -91,-125 -186,-260 -350,-480 -368,-492 -25,-19 -214,-150 -326,-228 -47,-32 -175,-121 -285,-198 -110,-77 -273,-191 -363,-253 -89,-62 -166,-121 -171,-130 -5,-9 -23,-68 -41,-131 l -80,-280 c -27,-91 -69,-237 -94,-325 -25,-88 -54,-185 -63,-215 -23,-75 -21,-114 9,-190 14,-36 60,-155 103,-265 43,-110 86,-222 97,-250 11,-27 23,-61 27,-75 15,-49 38,-36 179,102 101,98 150,138 182,150 106,39 417,151 565,202 214,76 208,72 217,129 5,26 11,68 16,94 5,36 13,50 32,60 35,18 322,153 325,153 3,0 107,49 329,154 65,31 120,56 121,56 2,0 54,24 116,53 63,30 175,82 249,117 74,34 206,96 292,136 86,41 185,87 220,103 180,83 439,205 487,229 52,26 57,32 138,176 57,100 81,152 75,158 -6,6 -41,13 -79,15 -76,6 -98,17 -62,32 34,14 317,91 334,91 8,0 27,15 42,32 196,230 394,353 648,404 106,21 360,29 505,15 166,-16 374,-53 544,-96 121,-31 147,-41 195,-77 157,-118 713,-559 757,-600 28,-26 55,-48 61,-48 5,0 61,41 124,90 63,50 139,110 169,133 30,24 99,78 152,120 l 96,77 38,97 c 20,54 55,143 76,197 21,55 38,106 38,113 0,11 -117,13 -625,13 -352,0 -625,4 -625,9 0,12 15,23 85,62 33,18 111,61 174,96 63,35 116,63 118,63 2,0 20,11 41,23 20,13 71,42 112,64 224,120 468,258 486,275 12,11 24,29 27,41 3,12 44,121 91,242 47,121 86,226 86,233 0,9 -189,12 -911,12 -724,0 -910,3 -907,13 3,6 22,21 44,33 35,18 129,69 414,222 36,19 79,42 95,52 17,10 75,41 130,70 206,110 280,151 291,163 6,7 32,71 58,142 26,72 57,153 68,182 11,29 17,57 13,63 -4,7 -405,10 -1338,10 H 4156 l -83,82 -83,83 v 62 c 0,34 -4,64 -9,68 -6,3 -56,-35 -113,-84 z"
       id="path17832"
       style="display:inline;fill:#5277c3;fill-opacity:1"
       inkscape:label="Face - Filled In"
       sodipodi:nodetypes="scccsssccsccccccccscsscsccsccccccccscsccccscsccsccccccsccccccssscsscccsssscccccccscscccscs" /></g><g
     transform="matrix(0.1,0,0,-0.1,0,790)"
     fill="#ffffff"
     stroke="none"
     id="g58"
     style="display:inline"
     inkscape:label="Outline"
     sodipodi:insensitive="true"><path
       d="m 6600,7873 c -70,-48 -2504,-2104 -2556,-2159 -34,-35 -70,-64 -80,-64 -20,-1 -72,-37 -133,-92 -20,-18 -112,-98 -206,-178 -93,-79 -183,-156 -200,-171 -16,-14 -64,-55 -105,-91 -41,-35 -84,-81 -95,-101 -12,-22 -27,-37 -38,-37 -28,0 -49,-17 -430,-334 l -349,-290 -146,-200 c -80,-111 -160,-221 -176,-246 -17,-25 -36,-52 -43,-60 -19,-23 -86,-116 -266,-365 -241,-335 -258,-357 -307,-392 -48,-35 -257,-182 -467,-327 C 933,2717 832,2647 780,2610 728,2573 624,2501 550,2450 365,2322 352,2312 336,2287 324,2270 175,1771 140,1635 c -4,-16 -24,-86 -44,-155 -20,-69 -43,-150 -52,-180 -8,-30 -20,-65 -25,-78 -5,-13 -9,-30 -9,-38 0,-13 79,-234 115,-319 30,-71 145,-368 166,-428 7,-20 25,-48 39,-61 30,-28 179,-116 197,-116 7,0 77,-18 156,-39 176,-49 287,-79 352,-96 28,-7 75,-20 105,-29 106,-29 245,-67 280,-76 41,-11 49,-9 205,41 222,72 269,87 450,144 99,32 212,68 250,80 39,13 151,49 250,80 99,31 234,74 300,95 66,22 158,51 205,66 47,14 125,39 174,55 75,24 116,30 265,38 368,21 593,32 791,41 498,22 667,31 702,41 24,6 91,53 187,132 82,67 190,156 241,197 99,80 219,179 260,214 14,11 59,48 100,81 41,33 84,67 95,77 11,9 52,43 91,75 39,32 113,92 165,135 52,42 189,153 304,248 116,94 228,186 249,203 22,18 44,37 50,42 12,11 98,79 231,184 44,35 96,76 115,91 19,15 82,65 140,111 58,46 135,107 173,136 37,30 74,64 82,77 28,42 175,438 175,470 0,17 -7,42 -16,55 -35,49 -51,51 -526,51 -279,0 -438,4 -432,9 8,9 411,234 614,344 41,22 81,45 89,51 14,11 59,102 85,173 7,21 45,121 85,223 39,102 71,195 71,208 0,38 -27,78 -64,96 -30,14 -108,16 -750,16 -402,0 -716,4 -716,9 0,5 28,22 63,39 59,30 145,75 302,161 104,57 186,101 226,122 60,32 85,69 129,189 23,63 57,156 76,207 39,104 41,124 18,163 -36,59 -41,60 -534,60 -353,0 -450,3 -450,13 0,6 7,30 15,52 63,179 128,365 135,390 5,17 41,122 80,235 39,113 93,270 120,350 27,80 81,237 120,350 39,113 93,270 120,350 27,80 89,264 139,410 50,146 91,276 91,290 0,33 -24,66 -60,85 -38,20 -70,19 -100,-2 z m 50,-123 c 0,-6 -5,-18 -10,-28 -6,-9 -42,-109 -79,-222 -38,-113 -94,-277 -125,-365 -30,-88 -115,-338 -189,-555 -75,-217 -190,-555 -257,-750 -66,-195 -130,-382 -141,-415 -12,-33 -26,-63 -32,-67 -7,-4 -352,-8 -768,-8 h -756 l -97,96 c -95,95 -96,96 -96,145 0,42 4,52 33,78 29,26 540,457 1893,1596 274,231 520,439 547,463 46,40 77,53 77,32 z M 3990,5467 v -62 l 83,-83 83,-82 h 1331 c 933,0 1334,-3 1338,-10 4,-6 -2,-34 -13,-63 -11,-29 -42,-110 -68,-182 -26,-71 -52,-135 -58,-142 -11,-12 -85,-53 -291,-163 -55,-29 -113,-60 -130,-70 -16,-10 -59,-33 -95,-52 -285,-153 -379,-204 -414,-222 -22,-12 -41,-27 -44,-33 -3,-10 183,-13 907,-13 722,0 911,-3 911,-12 0,-7 -39,-112 -86,-233 -47,-121 -88,-230 -91,-242 -3,-12 -15,-30 -27,-41 -18,-17 -262,-155 -486,-275 -41,-22 -92,-51 -112,-64 -21,-12 -39,-23 -41,-23 -2,0 -55,-28 -118,-63 -63,-35 -141,-78 -174,-96 -70,-39 -85,-50 -85,-62 0,-5 273,-9 625,-9 508,0 625,-2 625,-13 0,-7 -17,-58 -38,-113 -21,-54 -56,-143 -76,-197 l -38,-97 -96,-77 c -142,-112 -184,-146 -347,-273 -128,-99 -572,-459 -874,-708 -121,-99 -159,-131 -576,-472 -550,-450 -523,-430 -575,-430 -42,0 -117,-4 -632,-30 -106,-5 -335,-16 -508,-24 -450,-22 -461,-23 -585,-63 -60,-19 -165,-52 -232,-74 -68,-21 -180,-57 -250,-80 -71,-22 -218,-69 -328,-104 -245,-78 -381,-121 -687,-219 -130,-42 -249,-76 -264,-76 -15,0 -91,17 -168,39 -78,21 -269,73 -426,116 -157,42 -291,83 -298,90 -12,10 5,35 95,140 l 110,128 433,153 c 238,84 439,159 446,166 8,7 21,61 30,118 10,64 23,111 33,121 9,9 75,43 146,74 72,32 153,68 180,81 28,12 115,51 195,87 255,114 772,346 870,390 30,14 102,46 160,72 58,26 133,60 168,76 35,16 65,29 67,29 2,0 36,15 77,34 40,18 126,57 190,86 l 117,52 40,92 c 22,50 60,139 86,198 26,59 62,133 81,164 36,59 40,74 24,74 -13,0 -300,-79 -329,-91 -36,-15 -14,-26 62,-32 38,-2 73,-9 79,-15 6,-6 -18,-58 -75,-158 -81,-144 -86,-150 -138,-176 -48,-24 -307,-146 -487,-229 -35,-16 -134,-62 -220,-103 -86,-40 -218,-102 -292,-136 -74,-35 -186,-87 -249,-117 -62,-29 -114,-53 -116,-53 -1,0 -56,-25 -121,-56 -222,-105 -326,-154 -329,-154 -3,0 -290,-135 -325,-153 -19,-10 -27,-24 -32,-60 -5,-26 -11,-68 -16,-94 -9,-57 -3,-53 -217,-129 C 1157,893 846,781 740,742 708,730 659,690 558,592 417,454 394,441 379,490 c -4,14 -16,48 -27,75 -11,28 -54,140 -97,250 -43,110 -89,229 -103,265 -30,76 -32,115 -9,190 9,30 38,127 63,215 25,88 67,234 94,325 26,91 62,217 80,280 18,63 36,122 41,131 5,9 82,68 171,130 90,62 253,176 363,253 110,77 238,166 285,198 112,78 301,209 326,228 18,12 182,232 368,492 23,31 63,87 91,125 51,70 138,191 165,230 8,12 78,108 154,213 139,191 140,192 309,333 94,78 184,153 201,167 59,46 281,234 299,252 30,30 40,12 34,-61 l -5,-66 52,-52 c 29,-29 58,-53 64,-53 9,0 12,50 12,179 v 178 l 33,31 c 17,17 120,106 227,197 107,92 241,207 298,256 57,49 107,87 113,84 5,-4 9,-34 9,-68 z"
       id="path50"
       inkscape:label="Outline"
       style="display:inline" /><g
       id="g1220"
       transform="matrix(2.5112963,0,0,-2.5112963,2622.6727,4356.5289)"
       inkscape:label="Nix Snowflake"
       style="display:inline"><path
         sodipodi:nodetypes="cccccccccc"
         inkscape:connector-curvature="0"
         id="use4875"
         d="m 451.3364,-803.53264 -244.4144,-0.012 27.62229,-48.89685 65.56199,0.18175 -32.55875,-56.73717 13.96097,-24.15851 28.52722,-0.0315 46.3013,80.78414 66.69317,0.13524 z"
         style="color:#000000;clip-rule:nonzero;display:inline;overflow:visible;visibility:visible;opacity:1;isolation:auto;mix-blend-mode:normal;color-interpolation:sRGB;color-interpolation-filters:linearRGB;solid-color:#000000;solid-opacity:1;fill:#ffffff;fill-opacity:1;fill-rule:evenodd;stroke:none;stroke-width:3;stroke-linecap:butt;stroke-linejoin:round;stroke-miterlimit:4;stroke-dasharray:none;stroke-dashoffset:0;stroke-opacity:1;color-rendering:auto;image-rendering:auto;shape-rendering:auto;text-rendering:auto;enable-background:accumulate"
         inkscape:label="11"
         transform="translate(-132.58221,958.04023)" /><path
         style="color:#000000;clip-rule:nonzero;display:inline;overflow:visible;visibility:visible;opacity:1;isolation:auto;mix-blend-mode:normal;color-interpolation:sRGB;color-interpolation-filters:linearRGB;solid-color:#000000;solid-opacity:1;fill:#ffffff;fill-opacity:1;fill-rule:evenodd;stroke:none;stroke-width:3;stroke-linecap:butt;stroke-linejoin:round;stroke-miterlimit:4;stroke-dasharray:none;stroke-dashoffset:0;stroke-opacity:1;color-rendering:auto;image-rendering:auto;shape-rendering:auto;text-rendering:auto;enable-background:accumulate"
         d="m 353.50926,-797.4433 -122.21756,211.6631 -28.53477,-48.37 32.93839,-56.6875 -65.41521,-0.1719 -13.9414,-24.1698 14.23637,-24.721 93.11177,0.2939 33.46371,-57.6903 z"
         id="use4863"
         inkscape:connector-curvature="0"
         sodipodi:nodetypes="cccccccccc"
         inkscape:label="9"
         transform="translate(-132.58221,958.04023)" /><path
         style="color:#000000;clip-rule:nonzero;display:inline;overflow:visible;visibility:visible;opacity:1;isolation:auto;mix-blend-mode:normal;color-interpolation:sRGB;color-interpolation-filters:linearRGB;solid-color:#000000;solid-opacity:1;fill:#ffffff;fill-opacity:1;fill-rule:evenodd;stroke:none;stroke-width:3;stroke-linecap:butt;stroke-linejoin:round;stroke-miterlimit:4;stroke-dasharray:none;stroke-dashoffset:0;stroke-opacity:1;color-rendering:auto;image-rendering:auto;shape-rendering:auto;text-rendering:auto;enable-background:accumulate"
         d="m 309.40365,-710.2521 122.19683,211.6751 -56.15706,0.5268 -32.6236,-56.8692 -32.85645,56.5653 -27.90237,-0.011 -14.29086,-24.6896 46.81047,-80.4902 -33.22946,-57.8256 z"
         id="path4861"
         inkscape:connector-curvature="0"
         sodipodi:nodetypes="cccccccccc"
         inkscape:label="7"
         transform="translate(-132.58221,958.04023)" /><path
         style="color:#000000;clip-rule:nonzero;display:inline;overflow:visible;visibility:visible;opacity:1;isolation:auto;mix-blend-mode:normal;color-interpolation:sRGB;color-interpolation-filters:linearRGB;solid-color:#000000;solid-opacity:1;fill:#ffffff;fill-opacity:1;fill-rule:evenodd;stroke:none;stroke-width:3;stroke-linecap:butt;stroke-linejoin:round;stroke-miterlimit:4;stroke-dasharray:none;stroke-dashoffset:0;stroke-opacity:1;color-rendering:auto;image-rendering:auto;shape-rendering:auto;text-rendering:auto;enable-background:accumulate"
         d="m 362.88537,-628.243 244.41439,0.012 -27.62229,48.8968 -65.56199,-0.1817 32.55876,56.7371 -13.96098,24.1585 -28.52722,0.032 -46.3013,-80.7841 -66.69317,-0.1353 z"
         id="use4865"
         inkscape:connector-curvature="0"
         sodipodi:nodetypes="cccccccccc"
         inkscape:label="5"
         transform="translate(-132.58221,958.04023)" /><path
         sodipodi:nodetypes="cccccccccc"
         inkscape:connector-curvature="0"
         id="use4877"
         d="m 460.87178,-633.8425 122.21757,-211.66304 28.53477,48.37003 -32.93839,56.68751 65.4152,0.1718 13.9414,24.1698 -14.23636,24.7211 -93.11177,-0.294 -33.46371,57.6904 z"
         style="color:#000000;clip-rule:nonzero;display:inline;overflow:visible;visibility:visible;opacity:1;isolation:auto;mix-blend-mode:normal;color-interpolation:sRGB;color-interpolation-filters:linearRGB;solid-color:#000000;solid-opacity:1;fill:#ffffff;fill-opacity:1;fill-rule:evenodd;stroke:none;stroke-width:3;stroke-linecap:butt;stroke-linejoin:round;stroke-miterlimit:4;stroke-dasharray:none;stroke-dashoffset:0;stroke-opacity:1;color-rendering:auto;image-rendering:auto;shape-rendering:auto;text-rendering:auto;enable-background:accumulate"
         inkscape:label="3"
         transform="translate(-132.58221,958.04023)" /><path
         style="color:#000000;clip-rule:nonzero;display:inline;overflow:visible;visibility:visible;opacity:1;isolation:auto;mix-blend-mode:normal;color-interpolation:sRGB;color-interpolation-filters:linearRGB;solid-color:#000000;solid-opacity:1;fill:#ffffff;fill-opacity:1;fill-rule:evenodd;stroke:none;stroke-width:3;stroke-linecap:butt;stroke-linejoin:round;stroke-miterlimit:4;stroke-dasharray:none;stroke-dashoffset:0;stroke-opacity:1;color-rendering:auto;image-rendering:auto;shape-rendering:auto;text-rendering:auto;enable-background:accumulate"
         d="m 505.14318,-720.9886 -122.19683,-211.6751 56.15706,-0.5268 32.6236,56.8692 32.85645,-56.5653 27.90237,0.011 14.29086,24.6896 -46.81047,80.4902 33.22946,57.8256 z"
         id="use4867"
         inkscape:connector-curvature="0"
         sodipodi:nodetypes="cccccccccc"
         inkscape:label="1"
         transform="translate(-132.58221,958.04023)" /></g></g><g
     id="g18209"
     inkscape:label="Text"
     transform="translate(-0.42691672,-0.99613901)"><g
       style="display:inline;fill:#ffffff"
       inkscape:label="Nix"
       id="g5329"
       transform="matrix(0.24047835,-0.19522116,0.19522116,0.24047835,431.49526,982.78425)"><g
         aria-label="Nix"
         style="font-style:normal;font-variant:normal;font-weight:normal;font-stretch:normal;font-size:395.097px;line-height:125%;font-family:Carlito;-inkscape-font-specification:Carlito;letter-spacing:0px;word-spacing:0px;display:inline;opacity:1;fill:#ffffff;fill-opacity:1;stroke:none;stroke-width:1px;stroke-linecap:butt;stroke-linejoin:miter;stroke-opacity:1"
         id="text5407"
         inkscape:label="Nix"><path
           d="m 1267.7785,-770.46954 h -37.9293 l -46.6214,70.32723 h -1.1853 l -45.0411,-70.32723 h -41.09 l 68.3517,93.24285 v 1.18529 l -70.7223,96.79872 h 37.9293 l 49.7822,-75.85859 h 1.1853 l 49.7822,75.85859 h 41.09 l -72.3027,-98.37911 v -1.18529 z"
           style="font-style:normal;font-variant:normal;font-weight:normal;font-stretch:normal;font-family:Vegur;-inkscape-font-specification:Vegur;fill:#ffffff"
           id="path4687"
           inkscape:label="x" /><path
           d="m 1027.8251,-579.24268 h 33.1881 v -191.22686 h -33.1881 z m 16.594,-219.27874 c 11.4578,0 20.5451,-9.08722 20.5451,-20.54503 0,-11.45781 -9.0873,-20.54504 -20.5451,-20.54504 -11.4578,0 -20.545,9.08723 -20.545,20.54504 0,11.45781 9.0872,20.54503 20.545,20.54503 z"
           style="display:inline;fill:#ffffff;font-style:normal;font-variant:normal;font-weight:normal;font-stretch:normal;font-size:395.097px;line-height:125%;font-family:Vegur;-inkscape-font-specification:Vegur;letter-spacing:0px;word-spacing:0px;opacity:1;fill-opacity:1;stroke:none;stroke-width:1px;stroke-linecap:butt;stroke-linejoin:miter;stroke-opacity:1"
           id="path4685"
           inkscape:label="i"
           transform="translate(2.0407382e-5,-2.9133796e-5)" /><path
           d="m 969.15319,-847.11833 h -30.81755 v 139.86428 c 0,19.75484 0.79019,50.96749 1.97548,85.73601 h -1.18529 c -15.40877,-28.84207 -32.79303,-56.49884 -45.04104,-75.46349 l -96.79872,-150.1368 h -42.27536 v 267.87565 h 30.81755 v -139.86427 c 0,-19.75485 -0.79019,-56.89395 -1.97548,-91.26737 h 1.18529 c 22.91561,39.90478 36.34891,62.0302 48.99201,80.99485 l 96.79872,150.13679 h 38.32439 z"
           style="display:inline;fill:#ffffff;font-style:normal;font-variant:normal;font-weight:normal;font-stretch:normal;font-size:395.097px;line-height:125%;font-family:Vegur;-inkscape-font-specification:Vegur;letter-spacing:0px;word-spacing:0px;opacity:1;fill-opacity:1;stroke:none;stroke-width:1px;stroke-linecap:butt;stroke-linejoin:miter;stroke-opacity:1"
           id="path4683"
           inkscape:label="n"
           transform="translate(2.0407382e-5,-2.9133796e-5)" /></g><g
         aria-label="S"
         style="font-style:normal;font-variant:normal;font-weight:normal;font-stretch:normal;font-size:386.555px;line-height:125%;font-family:Carlito;-inkscape-font-specification:Carlito;letter-spacing:0px;word-spacing:0px;display:none;opacity:1;fill:#ffffff;fill-opacity:1;stroke:none;stroke-width:1px;stroke-linecap:butt;stroke-linejoin:miter;stroke-opacity:1"
         id="text5364"
         inkscape:label="OS"><path
           d="m 1523.761,-773.88643 c 0,37.10927 19.3277,57.21012 64.1681,75.37819 34.4034,13.91598 48.3193,26.28573 48.3193,51.79835 0,30.92438 -25.126,46.38657 -58.3697,46.38657 -17.395,0 -37.1093,-2.70588 -58.7564,-10.05042 l -3.479,26.67228 c 18.9412,6.95799 39.8152,9.66387 60.6891,9.66387 51.7984,0 95.0925,-26.28573 95.0925,-79.24374 0,-36.7227 -22.4202,-54.50422 -67.6471,-72.6723 -30.1512,-11.9832 -44.8403,-24.73951 -44.8403,-51.41179 0,-25.89917 22.4202,-40.2017 50.6387,-40.2017 16.6218,0 34.7899,4.2521 47.5462,9.27732 l 3.479,-26.28573 c -14.6891,-6.18488 -32.8572,-9.27732 -52.958,-9.27732 -47.5463,0 -83.8824,27.4454 -83.8824,69.96642 z"
           style="font-style:normal;font-variant:normal;font-weight:normal;font-stretch:normal;font-family:Vegur;-inkscape-font-specification:Vegur;display:inline;fill:#ffffff"
           id="path4677"
           inkscape:label="S" /><path
           d="m 1468.5915,-800.79725 c -66.1477,0 -120.5358,48.14083 -120.5358,128.25306 0,80.11223 54.3881,128.25306 120.5358,128.25306 66.1477,0 120.5359,-48.14083 120.5359,-128.25306 0,-80.11223 -54.3882,-128.25306 -120.5359,-128.25306 z m 0,24.98914 c 49.2433,0 86.727,36.74872 86.727,103.26392 0,66.5152 -37.4837,103.26392 -86.727,103.26392 -49.2433,0 -86.727,-36.74872 -86.727,-103.26392 0,-66.5152 37.4837,-103.26392 86.727,-103.26392 z"
           style="font-style:normal;font-variant:normal;font-weight:normal;font-stretch:normal;font-size:367.487px;line-height:125%;font-family:Vegur;-inkscape-font-specification:Vegur;letter-spacing:0px;word-spacing:0px;display:inline;opacity:1;fill:#ffffff;fill-opacity:1;stroke:none;stroke-width:1px;stroke-linecap:butt;stroke-linejoin:miter;stroke-opacity:1"
           id="path4680"
           inkscape:label="O"
           transform="matrix(0.95067318,0,0,1.0518862,2.0407382e-5,-2.9133796e-5)" /></g></g></g></svg>
